<svg width="16" height="16" viewBox="0 0 16 16" fill="none" xmlns="http://www.w3.org/2000/svg">
<g clip-path="url(#clip0_201_296)">
<path d="M12.1999 10.0001C11.0999 9.90009 10.4999 11.4001 9.69986 11.8001C8.39986 12.5001 5.99986 10.0001 5.99986 10.0001C5.99986 10.0001 3.49986 7.60009 4.09986 6.30009C4.59986 5.50009 6.09986 4.90009 5.99986 3.80009C5.89986 2.80009 3.69986 -0.799911 2.59986 0.200089C0.19986 2.40009 -0.000139412 3.30009 -0.000139412 5.10009C-0.100139 8.20009 3.89986 12.1001 3.89986 12.1001C4.29986 12.5001 7.79986 16.1001 10.8999 16.0001C12.6999 16.0001 13.5999 15.8001 15.7999 13.4001C16.7999 12.3001 13.2999 10.1001 12.1999 10.0001V10.0001Z" fill="#607CE6"/>
</g>
<defs>
<clipPath id="clip0_201_296">
<rect width="16" height="16" fill="white"/>
</clipPath>
</defs>
</svg>
